<svg xmlns="http://www.w3.org/2000/svg" xmlns:xlink="http://www.w3.org/1999/xlink" width="794" zoomAndPan="magnify" viewBox="0 0 594.95996 842.24997" height="1123" preserveAspectRatio="xMidYMid meet" version="1.0"><defs><clipPath id="c2555fbcbc"><path d="M 133 313.089844 L 465 313.089844 L 465 528 L 133 528 Z M 133 313.089844 " clip-rule="nonzero"/></clipPath><clipPath id="75729f23e9"><path d="M 184.28125 528.898438 L 410.394531 528.898438 C 441.019531 528.898438 465.847656 504.070312 465.847656 473.449219 L 465.847656 368.046875 C 465.847656 337.421875 441.019531 312.59375 410.394531 312.59375 L 184.28125 312.59375 C 153.65625 312.59375 128.828125 337.421875 128.828125 368.046875 L 128.828125 473.449219 C 128.828125 504.070312 153.65625 528.898438 184.28125 528.898438 Z M 184.28125 528.898438 " clip-rule="nonzero"/></clipPath><clipPath id="a5a9b367db"><path d="M 129.730469 472.546875 L 129.730469 368.945312 C 129.730469 338.320312 154.554688 313.492188 185.179688 313.492188 L 409.496094 313.492188 C 440.121094 313.492188 464.945312 338.320312 464.945312 368.945312 L 464.945312 472.546875 C 464.945312 503.171875 440.121094 528 409.496094 528 L 185.179688 528 C 154.554688 528 129.730469 503.171875 129.730469 472.546875 Z M 129.730469 472.546875 " clip-rule="nonzero"/></clipPath><clipPath id="22ade7eec8"><path d="M 128.828125 312.34375 L 466 312.34375 L 466 528.898438 L 128.828125 528.898438 Z M 128.828125 312.34375 " clip-rule="nonzero"/></clipPath><clipPath id="cace0e2e8c"><path d="M 184.28125 528.898438 L 410.394531 528.898438 C 441.019531 528.898438 465.847656 504.070312 465.847656 473.449219 L 465.847656 368.046875 C 465.847656 337.421875 441.019531 312.59375 410.394531 312.59375 L 184.28125 312.59375 C 153.65625 312.59375 128.828125 337.421875 128.828125 368.046875 L 128.828125 473.449219 C 128.828125 504.070312 153.65625 528.898438 184.28125 528.898438 Z M 184.28125 528.898438 " clip-rule="nonzero"/></clipPath><clipPath id="2d5dbafbb0"><path d="M 184.28125 528.898438 L 410.390625 528.898438 C 441.015625 528.898438 465.84375 504.074219 465.84375 473.449219 L 465.84375 368.046875 C 465.84375 337.425781 441.015625 312.597656 410.390625 312.597656 L 184.28125 312.597656 C 153.65625 312.597656 128.828125 337.425781 128.828125 368.046875 L 128.828125 473.449219 C 128.828125 504.074219 153.65625 528.898438 184.28125 528.898438 Z M 184.28125 528.898438 " clip-rule="nonzero"/></clipPath><clipPath id="6acc48ed0d"><path d="M 187.078125 348.605469 L 245.878906 348.605469 L 245.878906 413.144531 L 187.078125 413.144531 Z M 187.078125 348.605469 " clip-rule="nonzero"/></clipPath><clipPath id="1f3648271a"><path d="M 205.097656 365.890625 C 207.84375 362.503906 211.800781 360.871094 217.179688 360.871094 C 222.152344 360.871094 225.777344 362.386719 228.21875 365.488281 C 229.921875 367.644531 231.082031 370.652344 231.699219 374.417969 L 201.449219 374.417969 C 202.113281 370.9375 203.320312 368.09375 205.097656 365.914062 M 245.132812 383.800781 C 245.414062 376.765625 244.492188 370.582031 242.359375 365.441406 C 240.203125 360.207031 236.910156 356.109375 232.578125 353.265625 C 228.242188 350.421875 222.933594 348.976562 216.847656 348.976562 C 210.972656 348.976562 205.785156 350.328125 201.402344 352.980469 C 197.019531 355.632812 193.539062 359.449219 191.097656 364.328125 C 188.679688 369.136719 187.449219 374.894531 187.449219 381.40625 C 187.449219 387.660156 188.707031 393.226562 191.167969 397.941406 C 193.65625 402.703125 197.160156 406.445312 201.640625 409.097656 C 206.117188 411.753906 211.351562 413.101562 217.296875 413.101562 C 223.171875 413.101562 228.550781 411.609375 233.285156 408.671875 C 238.046875 405.710938 241.671875 401.496094 244.042969 396.117188 L 244.777344 394.460938 L 232.527344 390.242188 L 231.890625 391.570312 C 230.445312 394.53125 228.429688 396.828125 225.894531 398.390625 C 223.363281 399.957031 220.328125 400.761719 216.871094 400.761719 C 211.707031 400.761719 207.84375 399.125 205.097656 395.785156 C 202.988281 393.203125 201.664062 389.722656 201.140625 385.410156 L 245.058594 385.410156 Z M 245.132812 383.800781 " clip-rule="nonzero"/></clipPath><clipPath id="7ab0a784cd"><path d="M 0.277344 0.890625 L 58.546875 0.890625 L 58.546875 65.144531 L 0.277344 65.144531 Z M 0.277344 0.890625 " clip-rule="nonzero"/></clipPath><clipPath id="9abbcf7d76"><path d="M 18.097656 17.890625 C 20.84375 14.503906 24.800781 12.871094 30.179688 12.871094 C 35.152344 12.871094 38.777344 14.386719 41.21875 17.488281 C 42.921875 19.644531 44.082031 22.652344 44.699219 26.417969 L 14.449219 26.417969 C 15.113281 22.9375 16.320312 20.09375 18.097656 17.914062 M 58.132812 35.800781 C 58.414062 28.765625 57.492188 22.582031 55.359375 17.441406 C 53.203125 12.207031 49.910156 8.109375 45.578125 5.265625 C 41.242188 2.421875 35.933594 0.976562 29.847656 0.976562 C 23.972656 0.976562 18.785156 2.328125 14.402344 4.980469 C 10.019531 7.632812 6.539062 11.449219 4.097656 16.328125 C 1.679688 21.136719 0.449219 26.894531 0.449219 33.40625 C 0.449219 39.660156 1.707031 45.226562 4.167969 49.941406 C 6.65625 54.703125 10.160156 58.445312 14.640625 61.097656 C 19.117188 63.753906 24.351562 65.101562 30.296875 65.101562 C 36.171875 65.101562 41.550781 63.609375 46.285156 60.671875 C 51.046875 57.710938 54.671875 53.496094 57.042969 48.117188 L 57.777344 46.460938 L 45.527344 42.242188 L 44.890625 43.570312 C 43.445312 46.53125 41.429688 48.828125 38.894531 50.390625 C 36.363281 51.957031 33.328125 52.761719 29.871094 52.761719 C 24.707031 52.761719 20.84375 51.125 18.097656 47.785156 C 15.988281 45.203125 14.664062 41.722656 14.140625 37.410156 L 58.058594 37.410156 Z M 58.132812 35.800781 " clip-rule="nonzero"/></clipPath><clipPath id="3adbd7f8dd"><rect x="0" width="59" y="0" height="66"/></clipPath><clipPath id="e3fa290d83"><path d="M 307.546875 348.605469 L 365.628906 348.605469 L 365.628906 413.144531 L 307.546875 413.144531 Z M 307.546875 348.605469 " clip-rule="nonzero"/></clipPath><clipPath id="30f976c18e"><path d="M 325.53125 365.890625 C 328.277344 362.503906 332.234375 360.871094 337.609375 360.871094 C 342.585938 360.871094 346.210938 362.386719 348.648438 365.488281 C 350.355469 367.644531 351.515625 370.652344 352.132812 374.417969 L 321.882812 374.417969 C 322.542969 370.9375 323.753906 368.09375 325.53125 365.914062 M 364.449219 396.117188 L 365.183594 394.460938 L 352.9375 390.242188 L 352.296875 391.570312 C 350.851562 394.53125 348.839844 396.828125 346.304688 398.390625 C 343.769531 399.957031 340.738281 400.761719 337.277344 400.761719 C 332.113281 400.761719 328.253906 399.125 325.507812 395.785156 C 323.398438 393.203125 322.070312 389.722656 321.550781 385.410156 L 365.492188 385.410156 L 365.5625 383.800781 C 365.847656 376.765625 364.921875 370.582031 362.792969 365.441406 C 360.636719 360.207031 357.34375 356.109375 353.007812 353.265625 C 348.671875 350.421875 343.390625 348.976562 337.277344 348.976562 C 331.40625 348.976562 326.214844 350.328125 321.835938 352.980469 C 317.453125 355.632812 313.96875 359.449219 311.53125 364.328125 C 309.113281 369.136719 307.882812 374.894531 307.882812 381.40625 C 307.882812 387.660156 309.136719 393.226562 311.601562 397.941406 C 314.089844 402.703125 317.59375 406.445312 322.070312 409.097656 C 326.546875 411.753906 331.785156 413.101562 337.730469 413.101562 C 343.605469 413.101562 348.980469 411.609375 353.71875 408.671875 C 358.480469 405.710938 362.105469 401.496094 364.472656 396.117188 " clip-rule="nonzero"/></clipPath><clipPath id="96cb148c27"><path d="M 0.652344 0.890625 L 58.628906 0.890625 L 58.628906 65.144531 L 0.652344 65.144531 Z M 0.652344 0.890625 " clip-rule="nonzero"/></clipPath><clipPath id="26a048d7cb"><path d="M 18.53125 17.890625 C 21.277344 14.503906 25.234375 12.871094 30.609375 12.871094 C 35.585938 12.871094 39.210938 14.386719 41.648438 17.488281 C 43.355469 19.644531 44.515625 22.652344 45.132812 26.417969 L 14.882812 26.417969 C 15.542969 22.9375 16.753906 20.09375 18.53125 17.914062 M 57.449219 48.117188 L 58.183594 46.460938 L 45.9375 42.242188 L 45.296875 43.570312 C 43.851562 46.53125 41.839844 48.828125 39.304688 50.390625 C 36.769531 51.957031 33.738281 52.761719 30.277344 52.761719 C 25.113281 52.761719 21.253906 51.125 18.507812 47.785156 C 16.398438 45.203125 15.070312 41.722656 14.550781 37.410156 L 58.492188 37.410156 L 58.5625 35.800781 C 58.847656 28.765625 57.921875 22.582031 55.792969 17.441406 C 53.636719 12.207031 50.34375 8.109375 46.007812 5.265625 C 41.671875 2.421875 36.390625 0.976562 30.277344 0.976562 C 24.40625 0.976562 19.214844 2.328125 14.835938 4.980469 C 10.453125 7.632812 6.96875 11.449219 4.53125 16.328125 C 2.113281 21.136719 0.882812 26.894531 0.882812 33.40625 C 0.882812 39.660156 2.136719 45.226562 4.601562 49.941406 C 7.089844 54.703125 10.59375 58.445312 15.070312 61.097656 C 19.546875 63.753906 24.785156 65.101562 30.730469 65.101562 C 36.605469 65.101562 41.980469 63.609375 46.71875 60.671875 C 51.480469 57.710938 55.105469 53.496094 57.472656 48.117188 " clip-rule="nonzero"/></clipPath><clipPath id="93db4e85e5"><rect x="0" width="59" y="0" height="66"/></clipPath><clipPath id="adeadf451d"><path d="M 374.234375 348.605469 L 407.9375 348.605469 L 407.9375 413.144531 L 374.234375 413.144531 Z M 374.234375 348.605469 " clip-rule="nonzero"/></clipPath><clipPath id="069e49baf1"><path d="M 374.613281 348.976562 L 374.613281 413.101562 L 387.523438 413.101562 L 387.523438 382.851562 C 387.523438 380.769531 387.6875 376.667969 388.089844 374.539062 C 388.636719 371.433594 389.324219 369.042969 390.007812 367.761719 C 390.910156 366.128906 392.1875 364.683594 393.800781 363.5 C 395.601562 362.195312 397.496094 361.460938 399.601562 361.25 C 401.78125 361.011719 403.796875 361.128906 405.574219 361.582031 L 407.65625 362.101562 L 407.65625 349.6875 L 406.308594 349.40625 C 404.460938 349.027344 402.46875 348.882812 400.363281 349.027344 C 398.253906 349.167969 396.191406 349.570312 394.179688 350.234375 C 392.117188 350.921875 390.246094 351.9375 388.683594 353.195312 C 387.902344 353.761719 387.144531 354.402344 386.433594 355.136719 L 386.433594 348.976562 Z M 374.613281 348.976562 " clip-rule="nonzero"/></clipPath><clipPath id="5e231b302a"><path d="M 0.550781 0.648438 L 33.882812 0.648438 L 33.882812 65.144531 L 0.550781 65.144531 Z M 0.550781 0.648438 " clip-rule="nonzero"/></clipPath><clipPath id="ec81e063a0"><path d="M 0.613281 0.976562 L 0.613281 65.101562 L 13.523438 65.101562 L 13.523438 34.851562 C 13.523438 32.769531 13.6875 28.667969 14.089844 26.539062 C 14.636719 23.433594 15.324219 21.042969 16.007812 19.761719 C 16.910156 18.128906 18.1875 16.683594 19.800781 15.5 C 21.601562 14.195312 23.496094 13.460938 25.601562 13.25 C 27.78125 13.011719 29.796875 13.128906 31.574219 13.582031 L 33.65625 14.101562 L 33.65625 1.6875 L 32.308594 1.40625 C 30.460938 1.027344 28.46875 0.882812 26.363281 1.027344 C 24.253906 1.167969 22.191406 1.570312 20.179688 2.234375 C 18.117188 2.921875 16.246094 3.9375 14.683594 5.195312 C 13.902344 5.761719 13.144531 6.402344 12.433594 7.136719 L 12.433594 0.976562 Z M 0.613281 0.976562 " clip-rule="nonzero"/></clipPath><clipPath id="db176114a9"><rect x="0" width="34" y="0" height="66"/></clipPath><clipPath id="8cedb337e9"><path d="M 313.285156 421.03125 L 346.988281 421.03125 L 346.988281 485.566406 L 313.285156 485.566406 Z M 313.285156 421.03125 " clip-rule="nonzero"/></clipPath><clipPath id="184601020a"><path d="M 339.601562 421.347656 C 337.515625 421.488281 335.429688 421.890625 333.417969 422.554688 C 331.355469 423.242188 329.460938 424.261719 327.921875 425.515625 C 327.140625 426.082031 326.382812 426.722656 325.671875 427.457031 L 325.671875 421.300781 L 313.828125 421.300781 L 313.828125 485.421875 L 326.714844 485.421875 L 326.714844 455.171875 C 326.714844 453.089844 326.902344 448.992188 327.28125 446.859375 C 327.828125 443.753906 328.515625 441.363281 329.203125 440.082031 C 330.101562 438.449219 331.378906 437.003906 332.992188 435.820312 C 334.792969 434.515625 336.6875 433.78125 338.796875 433.570312 C 340.972656 433.332031 342.988281 433.449219 344.765625 433.902344 L 346.847656 434.421875 L 346.847656 422.007812 L 345.523438 421.726562 C 343.675781 421.347656 341.660156 421.203125 339.578125 421.347656 " clip-rule="nonzero"/></clipPath><clipPath id="739e2a4ce6"><path d="M 0.644531 0.0664062 L 33.976562 0.0664062 L 33.976562 64.566406 L 0.644531 64.566406 Z M 0.644531 0.0664062 " clip-rule="nonzero"/></clipPath><clipPath id="8b9610eed7"><path d="M 26.601562 0.347656 C 24.515625 0.488281 22.429688 0.890625 20.417969 1.554688 C 18.355469 2.242188 16.460938 3.261719 14.921875 4.515625 C 14.140625 5.082031 13.382812 5.722656 12.671875 6.457031 L 12.671875 0.300781 L 0.828125 0.300781 L 0.828125 64.421875 L 13.714844 64.421875 L 13.714844 34.171875 C 13.714844 32.089844 13.902344 27.992188 14.28125 25.859375 C 14.828125 22.753906 15.515625 20.363281 16.203125 19.082031 C 17.101562 17.449219 18.378906 16.003906 19.992188 14.820312 C 21.792969 13.515625 23.6875 12.78125 25.796875 12.570312 C 27.972656 12.332031 29.988281 12.449219 31.765625 12.902344 L 33.847656 13.421875 L 33.847656 1.007812 L 32.523438 0.726562 C 30.675781 0.347656 28.660156 0.203125 26.578125 0.347656 " clip-rule="nonzero"/></clipPath><clipPath id="0936d52e20"><rect x="0" width="34" y="0" height="65"/></clipPath><clipPath id="9490913295"><path d="M 187.078125 421.03125 L 245.878906 421.03125 L 245.878906 509 L 187.078125 509 Z M 187.078125 421.03125 " clip-rule="nonzero"/></clipPath><clipPath id="be6497a463"><path d="M 232.457031 453.300781 C 232.457031 457.164062 231.84375 460.667969 230.632812 463.75 C 229.472656 466.734375 227.695312 469.101562 225.351562 470.832031 C 223.054688 472.511719 220.09375 473.390625 216.5625 473.390625 C 212.914062 473.390625 209.90625 472.5625 207.632812 470.902344 C 205.359375 469.246094 203.605469 466.898438 202.492188 463.9375 C 201.332031 460.859375 200.738281 457.28125 200.738281 453.300781 C 200.738281 449.296875 201.332031 445.722656 202.515625 442.664062 C 203.652344 439.726562 205.359375 437.40625 207.632812 435.773438 C 209.90625 434.136719 212.796875 433.332031 216.300781 433.332031 C 219.972656 433.332031 223.03125 434.183594 225.351562 435.890625 C 227.695312 437.621094 229.496094 439.988281 230.65625 442.925781 C 231.867188 445.980469 232.480469 449.464844 232.480469 453.300781 M 241.839844 437.074219 C 239.5625 432.21875 236.273438 428.359375 232.007812 425.539062 C 227.742188 422.71875 222.601562 421.300781 216.753906 421.300781 C 210.804688 421.300781 205.714844 422.742188 201.589844 425.5625 C 200.929688 426.011719 200.265625 426.511719 199.648438 427.054688 L 199.648438 421.300781 L 187.449219 421.300781 L 187.449219 508.851562 L 200.714844 508.851562 L 200.714844 480.496094 C 200.976562 480.710938 201.238281 480.898438 201.519531 481.089844 C 205.640625 483.953125 210.734375 485.421875 216.679688 485.421875 C 222.578125 485.421875 227.71875 483.976562 231.984375 481.136719 C 236.246094 478.292969 239.539062 474.410156 241.816406 469.550781 C 244.066406 464.742188 245.179688 459.269531 245.179688 453.300781 C 245.179688 447.332031 244.042969 441.859375 241.816406 437.074219 Z M 241.839844 437.074219 " clip-rule="nonzero"/></clipPath><clipPath id="1facd9b85d"><path d="M 0.277344 0.0664062 L 58.304688 0.0664062 L 58.304688 88 L 0.277344 88 Z M 0.277344 0.0664062 " clip-rule="nonzero"/></clipPath><clipPath id="94109b3c71"><path d="M 45.457031 32.300781 C 45.457031 36.164062 44.84375 39.667969 43.632812 42.75 C 42.472656 45.734375 40.695312 48.101562 38.351562 49.832031 C 36.054688 51.511719 33.09375 52.390625 29.5625 52.390625 C 25.914062 52.390625 22.90625 51.5625 20.632812 49.902344 C 18.359375 48.246094 16.605469 45.898438 15.492188 42.9375 C 14.332031 39.859375 13.738281 36.28125 13.738281 32.300781 C 13.738281 28.296875 14.332031 24.722656 15.515625 21.664062 C 16.652344 18.726562 18.359375 16.40625 20.632812 14.773438 C 22.90625 13.136719 25.796875 12.332031 29.300781 12.332031 C 32.972656 12.332031 36.03125 13.183594 38.351562 14.890625 C 40.695312 16.621094 42.496094 18.988281 43.65625 21.925781 C 44.867188 24.980469 45.480469 28.464844 45.480469 32.300781 M 54.839844 16.074219 C 52.5625 11.21875 49.273438 7.359375 45.007812 4.539062 C 40.742188 1.71875 35.601562 0.300781 29.753906 0.300781 C 23.804688 0.300781 18.714844 1.742188 14.589844 4.5625 C 13.929688 5.011719 13.265625 5.511719 12.648438 6.054688 L 12.648438 0.300781 L 0.449219 0.300781 L 0.449219 87.851562 L 13.714844 87.851562 L 13.714844 59.496094 C 13.976562 59.710938 14.238281 59.898438 14.519531 60.089844 C 18.640625 62.953125 23.734375 64.421875 29.679688 64.421875 C 35.578125 64.421875 40.71875 62.976562 44.984375 60.136719 C 49.246094 57.292969 52.539062 53.410156 54.816406 48.550781 C 57.066406 43.742188 58.179688 38.269531 58.179688 32.300781 C 58.179688 26.332031 57.042969 20.859375 54.816406 16.074219 Z M 54.839844 16.074219 " clip-rule="nonzero"/></clipPath><clipPath id="db2e506cce"><rect x="0" width="59" y="0" height="88"/></clipPath><clipPath id="a4455672bd"><path d="M 355.589844 421.03125 L 407.9375 421.03125 L 407.9375 485.566406 L 355.589844 485.566406 Z M 355.589844 421.03125 " clip-rule="nonzero"/></clipPath><clipPath id="b30db9e09e"><path d="M 391.027344 421.300781 L 368.902344 447.191406 L 368.902344 421.300781 L 355.945312 421.300781 L 355.898438 485.421875 L 368.902344 485.421875 L 368.902344 458.726562 L 390.03125 485.421875 L 407.703125 485.421875 L 380.464844 452.828125 L 407.777344 421.300781 Z M 391.027344 421.300781 " clip-rule="nonzero"/></clipPath><clipPath id="288a8d7d36"><path d="M 0.847656 0.0664062 L 52.882812 0.0664062 L 52.882812 64.566406 L 0.847656 64.566406 Z M 0.847656 0.0664062 " clip-rule="nonzero"/></clipPath><clipPath id="68a482a2e1"><path d="M 36.027344 0.300781 L 13.902344 26.191406 L 13.902344 0.300781 L 0.945312 0.300781 L 0.898438 64.421875 L 13.902344 64.421875 L 13.902344 37.726562 L 35.03125 64.421875 L 52.703125 64.421875 L 25.464844 31.828125 L 52.777344 0.300781 Z M 36.027344 0.300781 " clip-rule="nonzero"/></clipPath><clipPath id="91009e1b43"><rect x="0" width="53" y="0" height="65"/></clipPath><clipPath id="8163e9347c"><path d="M 248.746094 349 L 304.679688 349 L 304.679688 413.144531 L 248.746094 413.144531 Z M 248.746094 349 " clip-rule="nonzero"/></clipPath><clipPath id="974a432a58"><path d="M 297.269531 349.027344 C 294.332031 349.027344 291.867188 350.898438 290.945312 353.527344 C 290.753906 353.929688 290.613281 354.355469 290.519531 354.828125 L 282.558594 392.636719 C 282.039062 395.621094 279.503906 397.800781 276.542969 397.800781 C 273.582031 397.800781 271.023438 395.621094 270.523438 392.636719 L 262.542969 354.804688 C 262.472656 354.355469 262.304688 353.90625 262.117188 353.503906 C 261.191406 350.898438 258.703125 349 255.789062 349 C 252.828125 349 250.34375 350.921875 249.441406 353.574219 C 249.015625 354.519531 248.851562 355.585938 249.085938 356.699219 L 260.195312 406.921875 C 260.90625 410.472656 263.988281 413.03125 267.585938 413.03125 L 285.496094 413.03125 C 289.097656 413.03125 292.199219 410.472656 292.886719 406.921875 L 303.996094 356.722656 C 304.210938 355.609375 304.042969 354.542969 303.640625 353.597656 C 302.742188 350.945312 300.253906 349.027344 297.292969 349.027344 " clip-rule="nonzero"/></clipPath><clipPath id="f00b080560"><path d="M 0.746094 0 L 56.292969 0 L 56.292969 64.144531 L 0.746094 64.144531 Z M 0.746094 0 " clip-rule="nonzero"/></clipPath><clipPath id="ac438b6249"><path d="M 49.269531 0.0273438 C 46.332031 0.0273438 43.867188 1.898438 42.945312 4.527344 C 42.753906 4.929688 42.613281 5.355469 42.519531 5.828125 L 34.558594 43.636719 C 34.039062 46.621094 31.503906 48.800781 28.542969 48.800781 C 25.582031 48.800781 23.023438 46.621094 22.523438 43.636719 L 14.542969 5.804688 C 14.472656 5.355469 14.304688 4.90625 14.117188 4.503906 C 13.191406 1.898438 10.703125 0 7.789062 0 C 4.828125 0 2.34375 1.921875 1.441406 4.574219 C 1.015625 5.519531 0.851562 6.585938 1.085938 7.699219 L 12.195312 57.921875 C 12.90625 61.472656 15.988281 64.03125 19.585938 64.03125 L 37.496094 64.03125 C 41.097656 64.03125 44.199219 61.472656 44.886719 57.921875 L 55.996094 7.722656 C 56.210938 6.609375 56.042969 5.542969 55.640625 4.597656 C 54.742188 1.945312 52.253906 0.0273438 49.292969 0.0273438 " clip-rule="nonzero"/></clipPath><clipPath id="6c8914de2b"><rect x="0" width="57" y="0" height="65"/></clipPath><clipPath id="d41ef1aaee"><path d="M 248.746094 421.03125 L 304.679688 421.03125 L 304.679688 485.566406 L 248.746094 485.566406 Z M 248.746094 421.03125 " clip-rule="nonzero"/></clipPath><clipPath id="90a6eee1e7"><path d="M 292.863281 427.457031 C 292.152344 423.90625 289.074219 421.347656 285.472656 421.347656 L 267.585938 421.347656 C 263.988281 421.347656 260.90625 423.90625 260.195312 427.457031 L 249.085938 477.675781 C 248.875 478.789062 249.039062 479.855469 249.441406 480.804688 C 250.34375 483.457031 252.828125 485.375 255.789062 485.375 C 258.726562 485.375 261.191406 483.480469 262.117188 480.875 C 262.304688 480.472656 262.449219 480.046875 262.542969 479.574219 L 270.5 441.742188 C 271.023438 438.734375 273.558594 436.578125 276.519531 436.578125 C 279.480469 436.578125 282.039062 438.757812 282.535156 441.742188 L 290.496094 479.574219 C 290.566406 480.023438 290.730469 480.449219 290.921875 480.875 C 291.84375 483.480469 294.308594 485.375 297.246094 485.375 C 300.207031 485.375 302.695312 483.457031 303.59375 480.804688 C 304.019531 479.855469 304.164062 478.789062 303.949219 477.675781 Z M 292.863281 427.457031 " clip-rule="nonzero"/></clipPath><clipPath id="5f40888162"><path d="M 0.746094 0.304688 L 56.292969 0.304688 L 56.292969 64.566406 L 0.746094 64.566406 Z M 0.746094 0.304688 " clip-rule="nonzero"/></clipPath><clipPath id="b8e9d420d8"><path d="M 44.863281 6.457031 C 44.152344 2.90625 41.074219 0.347656 37.472656 0.347656 L 19.585938 0.347656 C 15.988281 0.347656 12.90625 2.90625 12.195312 6.457031 L 1.085938 56.675781 C 0.875 57.789062 1.039062 58.855469 1.441406 59.804688 C 2.34375 62.457031 4.828125 64.375 7.789062 64.375 C 10.726562 64.375 13.191406 62.480469 14.117188 59.875 C 14.304688 59.472656 14.449219 59.046875 14.542969 58.574219 L 22.5 20.742188 C 23.023438 17.734375 25.558594 15.578125 28.519531 15.578125 C 31.480469 15.578125 34.039062 17.757812 34.535156 20.742188 L 42.496094 58.574219 C 42.566406 59.023438 42.730469 59.449219 42.921875 59.875 C 43.84375 62.480469 46.308594 64.375 49.246094 64.375 C 52.207031 64.375 54.695312 62.457031 55.59375 59.804688 C 56.019531 58.855469 56.164062 57.789062 55.949219 56.675781 Z M 44.863281 6.457031 " clip-rule="nonzero"/></clipPath><clipPath id="c5971ea3a4"><rect x="0" width="57" y="0" height="65"/></clipPath></defs><g clip-path="url(#c2555fbcbc)"><g clip-path="url(#75729f23e9)"><g clip-path="url(#a5a9b367db)"><path fill="#ffffff" d="M 303.136719 314.371094 C 341.925781 314.773438 380.710938 312.617188 419.5 314.300781 C 428.199219 314.707031 437.914062 315.921875 445.066406 321.25 C 451.472656 326.039062 456.0625 333.121094 458.757812 340.609375 C 462.605469 351.199219 463.074219 362.667969 463.546875 373.933594 C 464.761719 405.90625 465.84375 437.816406 465.167969 469.789062 C 464.695312 493.332031 459.703125 521.191406 431.574219 524.5625 C 413.699219 526.722656 395.078125 525.777344 377.070312 526.25 C 358.519531 526.722656 339.96875 527.195312 321.417969 527.597656 C 287.148438 528.273438 252.8125 528.140625 218.546875 528.140625 C 206.945312 528.070312 195.273438 527.667969 183.671875 528.140625 C 173.6875 528.476562 163.570312 528.882812 154.125 524.902344 C 128.828125 514.242188 134.832031 479.503906 134.496094 457.511719 C 134.226562 436.261719 133.347656 415.015625 133.214844 393.699219 C 133.148438 382.972656 133.347656 372.179688 133.6875 361.453125 C 133.957031 352.550781 134.699219 343.644531 139.824219 336.089844 C 142.996094 331.4375 147.515625 327.859375 152.371094 325.09375 C 163.839844 318.550781 177.398438 316.527344 190.621094 315.988281 C 225.359375 314.570312 260.300781 314.097656 295.109375 314.234375 C 297.808594 314.300781 300.507812 314.300781 303.136719 314.371094 Z M 303.136719 314.371094 " fill-opacity="1" fill-rule="nonzero"/></g></g></g><g clip-path="url(#22ade7eec8)"><g clip-path="url(#cace0e2e8c)"><g clip-path="url(#2d5dbafbb0)"><path stroke-linecap="butt" transform="matrix(0, -0.749333, 0.749333, 0, 128.82947, 528.897974)" fill="none" stroke-linejoin="miter" d="M -0.000618181 74.001554 L -0.000618181 375.749222 C -0.000618181 416.618922 33.127816 449.752572 73.997514 449.752572 L 214.659127 449.752572 C 255.523611 449.752572 288.657259 416.618922 288.657259 375.749222 L 288.657259 74.001554 C 288.657259 33.131854 255.523611 -0.00179546 214.659127 -0.00179546 L 73.997514 -0.00179546 C 33.127816 -0.00179546 -0.000618181 33.131854 -0.000618181 74.001554 Z M -0.000618181 74.001554 " stroke="#000000" stroke-width="8" stroke-opacity="1" stroke-miterlimit="4"/></g></g></g><g clip-path="url(#6acc48ed0d)"><g clip-path="url(#1f3648271a)"><g transform="matrix(1, 0, 0, 1, 187, 348)"><g clip-path="url(#3adbd7f8dd)"><g clip-path="url(#7ab0a784cd)"><g clip-path="url(#9abbcf7d76)"><rect x="-317.891191" width="856.742342" fill="#020203" height="1212.839957" y="-533.294993" fill-opacity="1"/></g></g></g></g></g></g><g clip-path="url(#e3fa290d83)"><g clip-path="url(#30f976c18e)"><g transform="matrix(1, 0, 0, 1, 307, 348)"><g clip-path="url(#93db4e85e5)"><g clip-path="url(#96cb148c27)"><g clip-path="url(#26a048d7cb)"><rect x="-437.891191" width="856.742342" fill="#020203" height="1212.839957" y="-533.294993" fill-opacity="1"/></g></g></g></g></g></g><g clip-path="url(#adeadf451d)"><g clip-path="url(#069e49baf1)"><g transform="matrix(1, 0, 0, 1, 374, 348)"><g clip-path="url(#db176114a9)"><g clip-path="url(#5e231b302a)"><g clip-path="url(#ec81e063a0)"><rect x="-504.891191" width="856.742342" fill="#020203" height="1212.839957" y="-533.294993" fill-opacity="1"/></g></g></g></g></g></g><g clip-path="url(#8cedb337e9)"><g clip-path="url(#184601020a)"><g transform="matrix(1, 0, 0, 1, 313, 421)"><g clip-path="url(#0936d52e20)"><g clip-path="url(#739e2a4ce6)"><g clip-path="url(#8b9610eed7)"><rect x="-443.891191" width="856.742342" fill="#009e84" height="1212.839957" y="-606.294993" fill-opacity="1"/></g></g></g></g></g></g><g clip-path="url(#9490913295)"><g clip-path="url(#be6497a463)"><g transform="matrix(1, 0, 0, 1, 187, 421)"><g clip-path="url(#db2e506cce)"><g clip-path="url(#1facd9b85d)"><g clip-path="url(#94109b3c71)"><rect x="-317.891191" width="856.742342" fill="#009e84" height="1212.839957" y="-606.294993" fill-opacity="1"/></g></g></g></g></g></g><g clip-path="url(#a4455672bd)"><g clip-path="url(#b30db9e09e)"><g transform="matrix(1, 0, 0, 1, 355, 421)"><g clip-path="url(#91009e1b43)"><g clip-path="url(#288a8d7d36)"><g clip-path="url(#68a482a2e1)"><rect x="-485.891191" width="856.742342" fill="#009e84" height="1212.839957" y="-606.294993" fill-opacity="1"/></g></g></g></g></g></g><g clip-path="url(#8163e9347c)"><g clip-path="url(#974a432a58)"><g transform="matrix(1, 0, 0, 1, 248, 349)"><g clip-path="url(#6c8914de2b)"><g clip-path="url(#f00b080560)"><g clip-path="url(#ac438b6249)"><rect x="-378.891191" width="856.742342" fill="#020203" height="1212.839957" y="-534.294993" fill-opacity="1"/></g></g></g></g></g></g><g clip-path="url(#d41ef1aaee)"><g clip-path="url(#90a6eee1e7)"><g transform="matrix(1, 0, 0, 1, 248, 421)"><g clip-path="url(#c5971ea3a4)"><g clip-path="url(#5f40888162)"><g clip-path="url(#b8e9d420d8)"><rect x="-378.891191" width="856.742342" fill="#009e84" height="1212.839957" y="-606.294993" fill-opacity="1"/></g></g></g></g></g></g></svg>